<?xml version="1.0" encoding="utf-8"?>
<!-- Generator: Adobe Illustrator 19.2.1, SVG Export Plug-In . SVG Version: 6.00 Build 0)  -->
<svg version="1.1" id="illustration" xmlns="http://www.w3.org/2000/svg" xmlns:xlink="http://www.w3.org/1999/xlink" x="0px"
	 y="0px" viewBox="0 0 1200 980" style="enable-background:new 0 0 1400 980;" xml:space="preserve">
<style type="text/css">
	.st0{fill:#151D38;}
	.st1{fill:#FCE2D8;}
	.st2{fill:#249A4B;}
	.st3{fill:#F1A465;}
	.st4{fill:#AEDEF8;}
	.st5{fill:#E8384A;}
	.st6{fill:#A24C31;}
	.st7{fill:#FFFFFF;}
	.st8{fill:#CED8DC;}
	.st9{fill:#7DA6ED;}
</style>
<g>
	<path class="st0" d="M267.04,828.087c1.208-0.974,2.6-1.108,4.11-1.104c14.349,0.037,28.698,0.022,43.047,0.022
		c0.548,0,1.103,0.052,1.643-0.016c0.486-0.061,1.143,0.326,1.39-0.349c0.04-0.11-0.628-0.52-1.001-0.734
		c-3.667-2.106-6.087-5.17-7.174-9.272c-2.233-8.42,3.391-16.975,12.017-18.273c3.417-0.514,3.392-0.519,4.043-4.006
		c4.709-25.221,9.429-50.439,14.143-75.659c2.97-15.886,5.933-31.773,8.905-47.659c0.219-1.172,0.327-2.344,0.327-3.539
		c-0.011-16.268-0.002-32.537-0.024-48.805c-0.001-0.87,0.444-2.104-0.427-2.523c-0.803-0.387-1.632,0.588-2.382,1.07
		c-7.055,4.534-12.099,10.725-15.386,18.438c-1.112,2.609-0.167,5.016,0.164,7.501c0.123,0.924,1.071,1.075,1.732,1.008
		c4.356-0.44,5.939,2.266,7.263,5.78c0.844,2.243,1.032,4.293,0.703,6.629c-1.784,12.66-3.435,25.339-5.129,38.012
		c-0.294,2.2-0.29,2.234-2.52,1.942c-8.602-1.127-17.202-2.272-25.802-3.422c-1.852-0.248-1.916-0.317-1.671-2.305
		c0.279-2.266,0.669-4.518,0.944-6.784c0.262-2.157,0.234-2.187-1.754-3.028c-5.549-2.348-11.111-4.665-16.66-7.011
		c-2.062-0.872-2.079-0.905-1.229-2.935c5.187-12.382,10.409-24.748,15.551-37.148c0.605-1.46,1.602-2.4,2.829-3.211
		c1.672-1.104,3.055-2.977,4.978-3.269c1.938-0.295,3.726,1.248,5.598,1.936c0.257,0.095,0.532,0.161,0.764,0.299
		c1.068,0.636,1.88,0.556,2.339-0.742c0.12-0.341,0.329-0.651,0.507-0.97c6.005-10.762,14.928-17.795,26.846-20.998
		c0.353-0.095,0.698-0.281,1.052-0.296c1.49-0.063,1.727-0.983,1.717-2.235c-0.035-4.204-0.012-8.408-0.011-12.612
		c0-1.28,0.004-2.559-0.001-3.839c-0.013-3.039-0.015-3.042-2.934-3.056c-1.371-0.007-2.743,0.035-4.112-0.015
		c-2.175-0.079-2.574-0.44-2.586-2.581c-0.034-5.941-0.035-11.882,0.003-17.822c0.013-2.078,0.352-2.391,2.379-2.451
		c1.826-0.054,3.656-0.041,5.483-0.013c1.022,0.016,1.534-0.39,1.487-1.445c-0.024-0.547,0.003-1.096,0.003-1.645
		c0-13.801,0.002-27.602-0.003-41.402c0-1.001,0.07-2.007-0.236-2.992c-0.881-2.831-3.462-4.688-6.418-4.592
		c-2.934,0.096-5.36,2.14-6.01,5.076c-0.138,0.622-0.172,1.273-0.365,1.875c-0.251,0.784-0.884,1.168-1.693,1.09
		c-0.811-0.079-1.368-0.588-1.466-1.395c-0.075-0.621-0.02-1.276,0.085-1.898c0.851-5.071,5.217-8.489,10.383-8.155
		c5.131,0.332,9.057,4.33,9.081,9.523c0.061,13.526,0.022,27.053,0.023,40.58c0,1.005-0.012,2.011,0.003,3.016
		c0.035,2.304,0.041,2.345,2.218,2.353c6.032,0.023,12.064,0.024,18.096-0.002c1.996-0.008,2.004-0.057,2.072-1.942
		c0.026-0.73,0.006-1.462,0.006-2.193c-0.015-39.3-0.063-78.6,0.011-117.9c0.007-3.479-1.136-5.956-3.939-7.875
		c-2.638-1.807-5.169-3.766-7.557-5.902c-1.571-1.405-3.051-2.894-4.276-4.615c-5.56-7.814-2.419-17.29,6.742-20.215
		c5.125-1.636,9.93-0.867,14.303,2.284c3.56,2.564,5.497,6.097,5.699,10.456c0.199,4.288,0.215,8.585,0.245,12.879
		c0.063,8.956,0.083,17.911,0.121,26.867c0.002,0.457,0.024,0.915,0.001,1.371c-0.061,1.2,0.299,1.576,1.603,1.232
		c2.87-0.758,5.793-0.753,8.668,0.071c6.567,1.883,10.597,7.267,10.702,14.564c0.113,7.767,0.061,15.537,0.076,23.305
		c0.041,21.386,0.08,42.772,0.12,64.158c0.001,0.366-0.008,0.731,0.003,1.097c0.07,2.313,0.072,2.325,2.276,2.366
		c1.279,0.024,2.559,0.022,3.838,0.001c2.142-0.036,2.167-0.045,2.214-2.083c0.039-1.644,0.01-3.29,0.009-4.935
		c-0.037-51.089-0.075-102.179-0.111-153.268c-0.005-6.679-0.108-6.877-5.564-10.862c-3.325-2.429-6.58-4.948-9.236-8.131
		c-1.967-2.358-3.37-4.981-3.556-8.14c-0.375-6.342,3.165-11.323,9.599-13.274c5.35-1.623,10.296-0.701,14.738,2.713
		c3.221,2.476,4.939,5.805,5.357,9.814c0.123,1.179,0.163,2.371,0.168,3.558c0.046,11.698,0.083,23.395,0.111,35.093
		c0.096,40.486,0.188,80.972,0.28,121.459c0.019,8.5,0.025,16.999,0.05,25.499c0.007,2.532,0.028,2.584,2.562,2.55
		c4.775-0.064,4.421,0.829,4.424-4.329c0.023-38.752,0.033-77.503,0.057-116.255c0.001-1.822-0.067-3.645,0.363-5.453
		c1.815-7.637,8.378-12.438,16.212-11.819c2.872,0.227,5.563,0.992,7.988,2.594c5.586,3.691,7.343,10.436,4.262,16.392
		c-1.062,2.053-2.533,3.792-4.185,5.388c-2.636,2.547-5.492,4.832-8.526,6.876c-2.966,1.999-4.265,4.52-4.254,8.262
		c0.093,31.256-0.001,62.512-0.038,93.768c-0.001,0.731-0.011,1.463,0.003,2.193c0.047,2.359,0.051,2.385,2.465,2.388
		c8.683,0.012,17.365,0.005,26.048,0.005c0.64,0,1.28-0.019,1.919,0.005c2.138,0.08,2.529,0.425,2.565,2.604
		c0.052,3.198,0.016,6.398,0.016,9.596c0,2.65,0.035,5.302-0.013,7.951c-0.042,2.26-0.463,2.654-2.78,2.714
		c-1.735,0.045-3.474,0.062-5.209,0.004c-1.322-0.044-1.81,0.53-1.712,1.804c0.063,0.818,0.009,1.644,0.009,2.467
		c0,48.44,0.067,96.88-0.041,145.32c-0.034,15.012-6.986,26.155-20.092,33.443c-2.159,1.2-4.458,2.12-6.866,2.691
		c-1.288,0.306-1.74,0.983-1.707,2.302c0.08,3.197,0.09,6.399-0.002,9.595c-0.044,1.526,0.551,2.079,2.016,2.241
		c1.253,0.138,2.569,0.425,3.677,0.995c1.881,0.969,3.361,0.473,5.067-0.496c31.875-18.1,65.636-31.455,101.265-40.08
		c0.444-0.107,0.876-0.316,1.323-0.346c1.338-0.09,1.608-0.894,1.564-2.049c-0.052-1.369-0.026-2.742-0.006-4.112
		c0.036-2.527,0.088-2.628,2.576-3.498c7.151-2.498,14.312-4.968,21.467-7.453c7.242-2.515,14.468-5.08,21.737-7.515
		c1.472-0.493,2.162-1.173,1.936-2.72c-0.065-0.447-0.009-0.913-0.009-1.369c0-83.262,0.005-166.523-0.016-249.785
		c-0.001-3.781,0.891-3.505-3.552-4.022c-20.594-2.392-37.137-11.957-48.802-29.036c-14.747-21.592-17.864-44.986-8.61-69.637
		c3.934-10.48,10.653-19.101,19.365-26.123c1.294-1.043,1.678-1.862,1.176-3.62c-2.496-8.741,2.595-17.095,11.503-19.228
		c2.101-0.503,2.127-0.503,2.133-2.671c0.015-5.392-0.006-10.785,0.013-16.177c0.004-1.057-0.097-1.886-1.248-2.443
		c-8.746-4.226-13.074-14.981-10.018-25.619c2.033-7.078,6.3-12.478,12.277-16.624c5.281-3.663,11.232-5.606,17.481-6.796
		c15.362-2.926,30.361-1.919,44.891,4.131c1.599,0.666,3.161,1.433,4.696,2.24c1.764,0.927,3.388,0.865,5.193-0.047
		c17.916-9.057,36.582-9.962,55.706-4.797c6.267,1.693,11.824,4.854,16.354,9.598c5.339,5.592,8.392,12.196,8.048,20.026
		c-0.387,8.822-4.514,15.297-12.827,18.697c-1.6,0.654-1.989,1.46-1.965,3.015c0.076,4.843,0.022,9.688,0.03,14.532
		c0.004,2.376,0.017,2.376,2.435,2.913c7.622,1.691,12.714,8.305,12.257,15.92c-0.419,6.974-5.355,12.609-12.424,14.183
		c-2.246,0.5-2.257,0.5-2.267,2.696c-0.023,5.027,0.009,10.054-0.08,15.079c-0.022,1.243,0.45,1.868,1.379,2.658
		c1.406,1.195,2.637,2.299,4.658,2.357c1.167,0.034,2.207,0.965,2.784,2.037c0.618,1.147,1.382,1.59,2.723,1.763
		c6.589,0.847,9.83,7.887,6.133,13.422c-0.923,1.382-0.944,2.115,0.3,3.09c0.785,0.616,1.418,1.422,2.149,2.113
		c1.822,1.722,2.849,3.825,2.766,6.329c-0.038,1.134,0.319,1.9,1.112,2.624c0.944,0.861,1.811,1.807,2.716,2.711
		c38.657,38.636,77.358,77.229,115.902,115.977c3.618,3.637,7.339,4.682,12.077,3.702c3.677-0.76,7.414-1.055,11.175-0.953
		c1.28,0.035,2.539,0.162,3.792,0.496c6.718,1.791,9.972,7.862,7.733,14.464c-3.086,9.099-14.782,13.719-23.127,5.948
		c-1.069-0.995-2.057-2.078-3.09-3.111c-19.064-19.066-38.124-38.135-57.195-57.194c-25.082-25.068-50.178-50.122-75.245-75.205
		c-1.204-1.205-2.296-2.048-4.218-1.937c-2.397,0.138-4.268-1.323-5.935-2.999c-0.946-0.951-1.683-2.519-3.039-2.559
		c-1.213-0.036-2.016,1.416-3.001,2.207c-4.453,3.58-9.844,4.12-14.863,1.45c-1.841-0.979-1.855-0.991-3.204,0.652
		c-3.085,3.758-6.497,7.191-10.328,10.18c-1.12,0.874-1.621,1.778-1.573,3.219c0.105,3.104,0.047,6.214,0.024,9.321
		c-0.008,1.019,0.144,1.97,0.539,2.927c1.315,3.182,1.388,6.425,0.046,9.601c-0.562,1.33-0.576,2.656-0.576,4.021
		c-0.002,22.483-0.009,44.967,0,67.45c0.027,68.546,0.06,137.092,0.09,205.638c0.002,4.587-0.001,4.593,4.174,6.05
		c13.27,4.633,26.541,9.261,39.812,13.891c0.69,0.24,1.384,0.468,2.068,0.722c1.054,0.392,1.606,1.112,1.569,2.289
		c-0.042,1.37-0.017,2.742-0.001,4.112c0.026,2.198,0.035,2.187,2.118,2.724c5.302,1.368,10.617,2.69,15.898,4.135
		c7.307,1.999,14.524,4.301,21.682,6.783c2.46,0.853,2.465,0.838,3.179-1.695c2.211-7.846,9.791-12.646,17.97-11.38
		c7.652,1.185,13.429,8.298,13.12,16.197c-0.105,2.693-0.889,5.199-2.238,7.54c-0.877,1.522-0.864,1.585,0.751,2.309
		c7.917,3.551,15.706,7.363,23.367,11.432c23.149,12.297,44.86,26.757,65.133,43.372c0.963,0.789,2.216,1.393,2.148,2.959
		c-0.02,0.47,0.381,0.575,0.746,0.595c0.638,0.034,1.279,0.026,1.919,0.026c11.424,0.001,22.849,0.001,34.274,0.001
		c0.274,0,0.548,0.005,0.823-0.001c1.967-0.049,1.973-0.049,2.016-1.908c0.017-0.731,0.003-1.462,0.003-2.193
		c0-191.657,0-383.315,0.001-574.972c0-1.097-0.064-2.201,0.04-3.288c0.135-1.41,0.815-1.917,2.216-1.725
		c0.625,0.086,1.229,0.333,1.836,0.527c49.027,15.676,98.054,31.353,147.077,47.044c1.235,0.395,2.993,0.395,2.913,2.294
		c-0.078,1.849-1.875,1.795-3.083,2.182c-48.063,15.399-96.137,30.765-144.21,46.135c-0.087,0.028-0.18,0.036-0.266,0.067
		c-3.583,1.277-3.137,0.414-3.138,4.265c-0.008,159.395-0.008,318.789,0.001,478.184c0,3.783-0.542,3.383,3.305,3.384
		c28.059,0.011,56.117,0.006,84.176,0.007c0.822,0,1.646-0.014,2.467,0.026c1.069,0.051,1.75,0.654,1.768,1.705
		c0.018,1.088-0.686,1.628-1.77,1.639c-1.005,0.011-2.01,0.02-3.016,0.02c-230.5,0.001-461.001,0.001-691.502,0.001
		c-21.661,0-43.322-0.002-64.983,0.005c-1.547,0.001-3.089,0.045-4.525-0.67C267.04,829.184,267.04,828.636,267.04,828.087z"/>
	<path class="st1" d="M711.764,379.468c3.341-1.742,5.653-4.75,8.587-6.993c0.458-0.35,0.252-0.841-0.109-1.177
		c-0.864-0.802-1.82-0.808-2.72-0.104c-1.004,0.785-1.895,1.72-2.925,2.467c-2.018,1.463-2.819,3.45-2.778,5.862
		c-0.327,0.164-0.067-0.312-0.22,0.02c-0.084,0.184-0.027,0.239,0.155,0.145C712.078,379.518,711.612,379.8,711.764,379.468z"/>
	<path class="st2" d="M669.672,827.006c73.649,0,147.298,0,220.947,0c0.822,0,1.645,0.01,2.467-0.015
		c0.254-0.008,0.615-0.035,0.735-0.196c0.317-0.424-0.152-0.632-0.391-0.849c-0.473-0.429-0.987-0.812-1.484-1.215
		c-26.192-21.199-54.618-38.774-85.337-52.633c-0.915-0.413-1.868-0.754-2.745-1.234c-1.092-0.599-1.675,0.28-2.435,0.693
		c-0.781,0.424-0.431,0.957-0.316,1.608c0.289,1.632-0.178,2.18-1.794,2.307c-0.999,0.079-2.011,0.064-3.014,0.019
		c-1.113-0.05-1.7,0.308-1.671,1.54c0.053,2.283,0.041,4.569,0.005,6.853c-0.016,1.022,0.357,1.512,1.424,1.49
		c1.644-0.034,3.29-0.023,4.934,0.003c2.046,0.032,2.869,0.529,2.918,1.703c0.05,1.197-0.724,1.706-2.831,1.715
		c-5.391,0.023-10.782,0.011-16.173,0.003c-0.546-0.001-1.099-0.025-1.635-0.115c-0.699-0.118-1.131-0.577-1.239-1.278
		c-0.127-0.829,0.275-1.394,0.982-1.78c0.595-0.324,1.245-0.242,1.879-0.247c1.645-0.015,3.29-0.036,4.934-0.002
		c1.054,0.022,1.455-0.44,1.439-1.475c-0.036-2.284-0.048-4.569,0.006-6.853c0.029-1.221-0.529-1.602-1.656-1.556
		c-1.094,0.044-2.195,0.04-3.288-0.032c-1.238-0.082-2.019-0.932-1.548-2.014c0.651-1.497-0.302-1.88-1.158-2.512
		c-2.97-2.195-5.088-5.058-5.874-8.655c-0.38-1.738-1.299-2.329-2.782-2.848c-37.334-13.066-75.782-20.291-115.288-21.715
		c-30.791-1.11-61.318,1.356-91.548,7.464c-40.224,8.128-78.238,22.175-114.039,42.224c-2.376,1.33-2.371,1.339-0.383,3.332
		c10.392,10.419,7.653,27.92-5.421,34.624c-0.873,0.447-1.753,0.88-2.63,1.319c0.965,0.646,2.049,0.312,3.068,0.312
		C522.374,827.007,596.023,827.005,669.672,827.006z"/>
	<path class="st1" d="M579.46,335.663c0,7.949,0.01,15.899-0.004,23.848c-0.008,4.679,0.487,9.3,1.549,13.855
		c8.331,35.727,43.412,57.652,79.206,49.509c25.632-5.831,45.689-27.09,50.032-53.013c0.635-3.792,0.974-7.6,0.965-11.45
		c-0.03-12.152-0.005-24.305-0.017-36.457c-0.002-2.314-0.054-2.402-1.683-2.105c-6.707,1.222-13.105-0.018-19.291-2.52
		c-9.63-3.896-17.481-10.148-23.71-18.441c-1.649-2.196-1.383-1.85-3.328-0.498c-4.598,3.196-9.544,5.718-14.785,7.681
		c-8.893,3.33-18.138,4.897-27.573,5.385c-4.92,0.255-9.85,0.445-14.77-0.266c-7.885-1.14-15.549-3.173-23.133-5.55
		c-0.783-0.245-1.567-0.491-2.362-0.69c-0.673-0.169-1.04,0.145-1.06,0.836c-0.021,0.73-0.035,1.461-0.035,2.192
		C579.459,317.206,579.46,326.435,579.46,335.663z"/>
	<path class="st3" d="M606.218,616.542c0,32.715,0,65.43,0,98.145c0,0.731-0.015,1.463,0.005,2.193
		c0.057,2.081,0.063,2.122,2.148,2.127c7.585,0.018,15.17,0.028,22.754,0c3.912-0.014,3.426,0.508,3.427-3.551
		c0.011-59.034,0.008-118.067,0.008-177.1c0-0.731-0.011-1.462,0.003-2.193c0.049-2.674,0.369-3.03,3.001-3.046
		c4.478-0.027,8.956-0.009,13.433-0.008c4.397,0.001,4.399,0.002,4.399,4.348c0,59.034,0,118.067,0,177.1
		c0,0.731-0.01,1.462,0.003,2.193c0.04,2.22,0.044,2.253,2.289,2.258c7.493,0.016,14.987,0.025,22.48-0.001
		c4.184-0.015,3.648,0.492,3.648-3.623c0.011-65.887,0.008-131.774,0.008-197.662c0-0.457,0.005-0.914-0.001-1.371
		c-0.035-2.403-0.037-2.404-2.398-2.439c-0.365-0.006-0.731-0.001-1.097-0.001c-23.577,0-47.154-0.009-70.731,0.01
		c-3.51,0.003-3.376-0.642-3.376,3.378C606.217,550.381,606.218,583.462,606.218,616.542z"/>
	<path class="st4" d="M408.654,634.365c-18.085,0-36.17-0.004-54.254,0.005c-2.412,0.001-2.412,0.031-2.45,2.364
		c-0.006,0.365-0.001,0.731-0.001,1.096c0,25.94-0.006,51.879,0.007,77.819c0.002,3.816-0.423,3.359,3.343,3.36
		c35.621,0.012,71.243,0.007,106.864,0.007c0.457,0,0.914,0.013,1.37-0.004c1.875-0.071,1.877-0.074,1.935-2.065
		c0.011-0.365,0.002-0.731,0.002-1.096c0-26.122,0-52.245,0-78.367c0-0.548-0.034-1.098-0.003-1.644
		c0.061-1.052-0.43-1.505-1.462-1.471c-0.73,0.024-1.461-0.004-2.192-0.004C444.093,634.364,426.374,634.364,408.654,634.365z"/>
	<path class="st5" d="M941.111,292.545c0,2.924,0,5.848,0,8.772c0,11.331-0.003,22.662,0.002,33.993
		c0.001,3.724-0.207,3.31,3.22,2.219c12.261-3.904,24.515-7.833,36.771-11.754c33.546-10.732,67.091-21.465,100.634-32.204
		c0.678-0.217,1.797-0.201,1.834-0.909c0.03-0.577-1.114-0.645-1.758-0.851c-45.975-14.707-91.955-29.4-137.935-44.091
		c-2.754-0.88-2.766-0.868-2.767,2.059C941.109,264.034,941.111,278.29,941.111,292.545z"/>
	<path class="st6" d="M646.424,292.079c20.836,0,41.672-0.004,62.508,0.007c1.745,0.001,3.456-0.104,5.14-0.63
		c8.124-2.538,13.026-10.614,11.761-19.342c-0.888-6.129-3.682-11.224-8.204-15.4c-3.9-3.602-8.477-6.069-13.545-7.495
		c-15.757-4.433-31.393-4.163-46.818,1.579c-0.874,0.326-2.444,0.488-2.364,1.307c0.082,0.839,1.688,0.763,2.607,1.129
		c0.467,0.186,1.094,0.102,1.616-0.011c2.158-0.465,4.357-0.54,6.54-0.657c7.952-0.426,15.673,0.588,22.974,3.974
		c0.995,0.461,1.997,0.922,2.814,1.672c0.606,0.556,0.733,1.251,0.341,1.987c-0.395,0.74-1.06,1.022-1.847,0.811
		c-0.517-0.139-1-0.427-1.478-0.685c-2.178-1.179-4.476-2.037-6.852-2.731c-6.338-1.85-12.797-1.865-19.296-1.377
		c-0.272,0.02-0.544,0.072-0.812,0.127c-0.701,0.144-1.1,0.554-1.219,1.284c-0.14,0.86,0.4,1.09,1.047,1.317
		c0.774,0.272,1.528,0.603,2.287,0.918c6.23,2.583,11.865,6.066,16.515,11.012c0.81,0.862,1.553,1.8,2.232,2.769
		c0.6,0.856,0.539,1.772-0.349,2.417c-0.896,0.65-1.727,0.36-2.408-0.434c-0.772-0.901-1.479-1.863-2.304-2.713
		c-5.617-5.79-12.567-9.306-20.141-11.752c-0.999-0.323-1.981-0.2-2.974,0.015c-5.705,1.238-11.426,1.193-17.148,0.155
		c-0.829-0.15-1.569-0.213-2.398,0.085c-7.951,2.863-15.101,6.912-20.482,13.632c-1.199,1.497-2.25,1.871-3.149,1.153
		c-0.886-0.707-0.766-1.728,0.495-3.366c2.706-3.517,6.073-6.308,9.759-8.735c2.677-1.762,5.52-3.215,8.453-4.498
		c0.483-0.211,1.13-0.364,0.943-1.1c-0.146-0.573-0.608-0.887-1.205-0.962c-0.362-0.046-0.725-0.108-1.089-0.123
		c-8.242-0.341-16.222,0.762-23.722,4.394c-1.228,0.595-2.372,1.366-3.535,2.086c-0.975,0.604-1.942,0.765-2.626-0.303
		c-0.667-1.041-0.196-1.951,0.749-2.571c1.143-0.75,2.299-1.5,3.517-2.114c6.909-3.482,14.308-4.931,21.981-4.943
		c3.828-0.006,7.645,0.298,11.182-1.603c0.444-0.239,1.263,0.079,1.371-0.569c0.12-0.723-0.73-0.664-1.168-0.885
		c-0.648-0.327-1.353-0.544-2.044-0.782c-12.47-4.287-25.189-4.964-38.108-2.583c-6.061,1.117-11.898,2.87-17.031,6.44
		c-6.459,4.492-10.748,10.435-11.622,18.398c-1.403,12.784,8.149,19.912,17.143,19.787
		C605.114,291.883,625.77,292.079,646.424,292.079z"/>
	<path class="st0" d="M644.762,510.542c7.586,0,15.172,0,22.758,0c4.479,0,8.957,0.006,13.436-0.002
		c2.762-0.005,2.762-0.015,2.775-2.883c0.001-0.183,0-0.366,0-0.548c0-20.108,0-40.216,0-60.324c0-0.548-0.021-1.098,0.001-1.645
		c0.044-1.079-0.219-1.642-1.369-0.897c-0.46,0.298-0.94,0.564-1.414,0.839c-7.205,4.18-14.682,7.786-22.57,10.487
		c-16.563,5.671-33.318,7.153-50.352,2.192c-1.673-0.487-1.696-0.435-1.795,1.207c-0.033,0.547-0.013,1.096-0.013,1.645
		c-0.001,15.538-0.001,31.076-0.001,46.614c0,0.548,0.044,1.1-0.001,1.644c-0.112,1.348,0.543,1.796,1.803,1.68
		c0.634-0.059,1.279-0.009,1.918-0.009C621.547,510.542,633.154,510.542,644.762,510.542z"/>
	<path class="st4" d="M408.818,730.674c-17.624,0-35.248,0-52.872,0c-0.731,0-1.464,0.044-2.191-0.005
		c-1.232-0.084-1.829,0.319-1.826,1.685c0.009,3.566,0.061,7.108,0.944,10.603c3.87,15.325,17.151,25.662,33.347,25.747
		c14.976,0.079,29.952,0.032,44.928,0.004c3.202-0.006,6.369-0.397,9.469-1.266c15.294-4.287,25.102-17.818,24.853-34.306
		c-0.036-2.411-0.036-2.414-2.409-2.461c-0.548-0.011-1.096-0.002-1.644-0.002C443.884,730.674,426.351,730.674,408.818,730.674z"/>
	<path class="st7" d="M383.828,780.153c-16.621,0-33.241-0.003-49.862,0.003c-2.762,0.001-2.753,0.02-3.264,2.778
		c-0.848,4.575-1.656,9.158-2.594,13.714c-0.305,1.482-0.05,2.224,1.441,2.916c5.354,2.485,8.281,6.85,8.557,12.701
		c0.27,5.736-2.224,10.224-7.091,13.349c-0.503,0.323-1.496,0.494-1.366,1.061c0.158,0.688,1.089,0.21,1.67,0.324
		c0.176,0.035,0.364,0.005,0.547,0.005c19.543,0,39.086,0,58.629,0c0.548,0,1.096,0.002,1.643-0.02
		c0.461-0.018,0.961-0.068,0.938-0.694c-0.054-1.447,1.092-2.013,1.986-2.749c6.486-5.343,13.144-10.463,19.986-15.339
		c1.109-0.79,1.716-1.573,1.766-3.08c0.196-5.933,2.576-10.948,6.927-14.995c3.087-2.872,6.723-4.709,10.89-5.354
		c1.4-0.216,2.112-0.616,2.064-2.196c-0.071-2.328-0.02-2.381-2.456-2.422c-0.639-0.011-1.278-0.003-1.918-0.003
		C416.156,780.153,399.992,780.153,383.828,780.153z"/>
	<path class="st7" d="M575.955,357.988c0-2.649,0.024-5.299-0.016-7.947c-0.01-0.689,0.365-1.77-0.328-1.987
		c-0.86-0.27-1.204,0.863-1.657,1.465c-2.256,3-4.236,6.181-5.817,9.586c-8.376,18.037-8.593,36.383-1.618,54.822
		c10.263,27.128,34.325,43.567,63.285,43.403c12.14-0.069,23.65-3.12,34.76-7.837c5.553-2.358,10.927-5.084,16.057-8.255
		c3.323-2.054,4.829-5.178,4.457-9.069c-0.362-3.79-2.438-6.42-5.926-7.891c-2.999-1.265-5.895-0.856-8.653,0.77
		c-3.935,2.32-7.97,4.446-12.159,6.273c-9.982,4.353-20.313,7.174-31.305,6.813c-12.515-0.41-23.341-4.903-31.999-14.033
		c-9.766-10.298-14.272-22.729-14.259-36.857c0.001-1.55-0.002-3.045-0.578-4.567C577.19,374.731,575.922,366.467,575.955,357.988z"
		/>
	<path class="st4" d="M408.524,630.866c17.912,0,35.824-0.002,53.737,0.001c3.689,0.001,3.197,0.002,3.204-3.318
		c0.016-7.585,0.014-15.171,0.001-22.756c-0.006-3.559,0.321-3.177-3.279-3.177c-35.642-0.008-71.283-0.005-106.925-0.005
		c-0.457,0-0.914-0.011-1.371,0.003c-1.882,0.056-1.925,0.059-1.933,2.029c-0.024,5.483-0.009,10.967-0.009,16.45
		c0,3.016,0.05,6.033-0.018,9.047c-0.03,1.324,0.476,1.83,1.761,1.729c0.727-0.057,1.461-0.005,2.193-0.005
		C373.43,630.866,390.977,630.866,408.524,630.866z"/>
	<path class="st7" d="M638.025,629.315c0,29.239,0,58.477,0,87.716c0,0.731,0.01,1.462-0.003,2.193
		c-0.053,2.865-0.344,3.17-3.113,3.22c-1.187,0.021-2.376-0.019-3.563,0.012c-2,0.053-2.048,0.067-2.08,1.964
		c-0.045,2.649-0.04,5.3-0.002,7.949c0.028,1.913,0.068,1.942,2.026,1.925c6.303-0.055,12.606-0.166,18.91-0.192
		c3.014-0.013,6.028,0.097,9.041,0.193c1.044,0.033,1.485-0.363,1.464-1.426c-0.04-2.009,0.021-4.02-0.011-6.03
		c-0.079-4.943,0.792-4.347-4.317-4.385c-4.357-0.032-4.359-0.011-4.359-4.418c-0.001-58.934,0-117.868,0-176.803
		c0-0.64,0.003-1.279-0.001-1.919c-0.018-2.738-0.019-2.752-2.647-2.768c-2.65-0.017-5.299-0.013-7.949-0.002
		c-3.6,0.015-3.393-0.359-3.393,3.41C638.025,569.741,638.026,599.528,638.025,629.315z"/>
	<path class="st4" d="M408.495,565.418c-15.161,0-30.323,0-45.484,0c-6.302,0-12.604,0.03-18.906-0.022
		c-1.382-0.011-1.948,0.386-1.914,1.851c0.082,3.56,0.005,7.124,0.03,10.685c0.027,3.813-0.496,3.49,3.535,3.491
		c41.922,0.006,83.844,0.004,125.765,0.004c0.548,0,1.101-0.049,1.643,0.006c1.405,0.145,1.932-0.426,1.905-1.859
		c-0.07-3.743-0.016-7.489-0.022-11.234c-0.005-3.341,0.096-2.916-2.986-2.918C450.873,565.414,429.684,565.418,408.495,565.418z"/>
	<path class="st7" d="M600.524,459.07c0.764-0.208,1.758,0.567,2.161-0.633c0.454-1.349-0.03-2.501-1.307-3.108
		c-1.813-0.862-3.677-1.626-5.447-2.568c-30.846-16.425-45.66-55.717-33.549-88.907c2.368-6.49,5.658-12.465,9.939-17.884
		c0.742-0.939,0.832-1.427-0.485-1.857c-2.199-0.718-4.084-1.991-5.735-3.63c-1.408-1.398-1.452-1.379-3.072-0.057
		c-6.161,5.027-11.229,10.991-15.008,17.986c-7.497,13.875-9.535,28.661-6.781,44.084c3.106,17.39,11.377,31.879,25.206,42.998
		C576.405,453.5,587.92,457.754,600.524,459.07z"/>
	<path class="st4" d="M408.833,598.236c17.626,0,35.252,0,52.878,0c0.731,0,1.464-0.043,2.191,0.003
		c1.21,0.077,1.592-0.514,1.575-1.647c-0.039-2.648,0.012-5.297-0.013-7.945c-0.038-3.963,0.572-3.721-3.621-3.721
		c-35.435-0.004-70.869-0.003-106.304-0.002c-0.639,0-1.283,0.052-1.917-0.002c-1.358-0.117-1.71,0.557-1.689,1.799
		c0.054,3.195,0.056,6.393-0.001,9.589c-0.024,1.339,0.315,2.114,1.833,1.937c0.631-0.074,1.277-0.01,1.916-0.01
		C373.399,598.236,391.116,598.236,408.833,598.236z"/>
	<path class="st7" d="M384.265,776.657c16.267,0,32.534,0,48.801,0c0.731,0,1.465-0.05,2.193,0c1.118,0.076,1.437-0.517,1.399-1.498
		c-0.021-0.547-0.042-1.1,0.007-1.644c0.123-1.363-0.464-1.59-1.776-1.564c-16.904,0.341-33.811,0.257-50.715,0.084
		c-7.491-0.076-14.37-2.558-20.386-7.069c-10.104-7.575-15.23-17.749-15.291-30.381c-0.066-13.617-0.011-27.234-0.03-40.851
		c-0.001-0.694,0.311-1.88-0.346-1.968c-0.705-0.094-0.42,1.105-0.638,1.713c-0.183,0.511-0.248,1.065-0.349,1.604
		c-3.592,19.205-7.184,38.409-10.771,57.615c-1.375,7.359-2.758,14.717-4.091,22.083c-0.324,1.788-0.241,1.809,1.546,1.872
		c0.639,0.022,1.279,0.005,1.919,0.005C351.914,776.657,368.09,776.657,384.265,776.657z"/>
	<path class="st8" d="M423.243,467.838c-0.122,0-0.243,0-0.365,0c0-10.69,0.01-21.38-0.002-32.069
		c-0.023-19.461-0.059-38.923-0.091-58.385c-0.001-0.731,0.011-1.464-0.044-2.192c-0.833-10.951-12.352-13.514-18.895-9.01
		c-3.758,2.587-5.059,6.903-3.272,11.09c0.727,1.704,1.846,3.142,3.136,4.455c2.637,2.682,5.548,5.046,8.671,7.119
		c4.259,2.828,6.412,6.624,5.934,11.801c-0.075,0.815-0.011,1.644-0.01,2.466c0.015,51.99,0.03,103.979,0.047,155.969
		c0.001,3.078,0.01,3.013,2.974,2.986c1.373-0.012,2.066-0.395,1.926-1.865c-0.069-0.724-0.01-1.461-0.01-2.192
		C423.243,527.954,423.243,497.896,423.243,467.838z"/>
	<path class="st8" d="M437.134,499.949c-0.015,0-0.031,0-0.046,0c0,19.92,0,39.839,0,59.759c0,0.365,0.014,0.731,0.004,1.096
		c-0.022,0.766,0.313,1.111,1.104,1.234c3.287,0.509,3.829,0.084,3.829-3.201c0.002-23.392-0.003-46.784,0.003-70.176
		c0.002-8.772,0.051-17.543,0.031-26.315c-0.006-2.678,0.717-5.033,2.545-7.024c1.183-1.289,2.581-2.317,3.992-3.329
		c2.751-1.973,5.403-4.064,7.804-6.457c1.435-1.43,2.689-2.995,3.437-4.902c1.412-3.598,0.837-6.897-1.915-9.583
		c-3.351-3.27-7.471-4.085-11.927-2.898c-4.537,1.209-7.389,4.158-8.447,8.781c-0.37,1.617-0.42,3.253-0.419,4.902
		C437.137,461.207,437.134,480.578,437.134,499.949z"/>
	<path class="st3" d="M326.944,642.725c-0.178-1.08-0.486-2.158-0.503-3.241c-0.024-1.539-0.829-2.228-2.153-2.756
		c-4.151-1.658-8.266-3.407-12.391-5.132c-0.674-0.282-1.436-0.819-2.066-0.351c-1.863,1.384-4.15,2.238-5.16,4.678
		c-4.643,11.216-9.382,22.391-14.069,33.589c-0.744,1.777-0.719,1.837,1.053,2.585c5.968,2.519,11.945,5.017,17.929,7.497
		c1.912,0.792,1.968,0.771,2.781-1.164c4.67-11.106,9.317-22.221,13.976-33.332C326.66,644.339,327.024,643.596,326.944,642.725z"/>
	<path class="st8" d="M403.044,516.068c-0.055,0-0.11,0-0.165,0c0-14.154,0.006-28.307-0.01-42.461
		c-0.001-1.274-0.109-2.55-0.22-3.821c-0.835-9.573-11.538-12.803-18.456-8.356c-3.899,2.506-5.278,7.016-3.443,11.265
		c0.847,1.962,2.203,3.563,3.725,5.03c2.571,2.478,5.364,4.687,8.31,6.695c3.927,2.677,5.701,6.175,5.668,11.092
		c-0.141,21.092-0.001,42.187,0.038,63.28c0.001,0.73,0.011,1.461,0.039,2.191c0.014,0.374,0.135,0.818,0.493,0.903
		c1.163,0.274,2.422,0.396,3.505-0.022c0.894-0.345,0.503-1.46,0.504-2.238C403.049,545.107,403.044,530.587,403.044,516.068z"/>
	<path class="st8" d="M438.283,824.263c10.104,0.038,18.429-8.199,18.407-18.211c-0.022-9.934-8.195-18.121-18.164-18.194
		c-10.067-0.074-18.415,8.2-18.39,18.226C420.16,816.038,428.334,824.226,438.283,824.263z"/>
	<path class="st7" d="M385.447,522.458c0.046,0,0.092,0,0.138,0c0,10.038-0.005,20.076,0.004,30.114
		c0.002,2.555,0.082,5.11,0.059,7.664c-0.011,1.22,0.345,1.868,1.706,1.82c2.005-0.072,4.016-0.062,6.022-0.004
		c1.236,0.035,1.597-0.566,1.537-1.667c-0.035-0.637-0.001-1.277-0.002-1.916c-0.015-15.422-0.032-30.844-0.045-46.266
		c-0.005-6.023-0.013-12.046,0.007-18.069c0.005-1.398-0.116-2.747-1.008-3.889c-2.063-2.641-5.041-4.17-7.609-6.197
		c-0.356-0.281-0.712-0.095-0.748,0.362c-0.058,0.726-0.057,1.457-0.057,2.186C385.446,498.55,385.447,510.504,385.447,522.458z"/>
	<path class="st0" d="M614.9,722.448c-2.007,0-4.018,0.074-6.022-0.018c-2.687-0.123-5.202,0.382-7.743,1.294
		c-8.147,2.923-16.355,5.677-24.535,8.507c-5.425,1.877-10.841,3.781-16.268,5.65c-0.992,0.341-1.752,0.656-1.846,1.978
		c-0.26,3.625-0.044,3.873,3.541,3.088c0.178-0.039,0.35-0.103,0.529-0.141c14.91-3.154,29.937-5.531,45.117-6.94
		c5.36-0.497,10.724-0.914,16.098-1.22c1.948-0.111,1.981-0.196,2.005-2.08c0.035-2.737-0.048-5.476,0.033-8.211
		c0.042-1.41-0.427-1.963-1.874-1.926C620.924,722.505,617.911,722.452,614.9,722.448z"/>
	<path class="st0" d="M676.423,722.451c-4.333,0-7.349-0.032-10.364,0.011c-1.912,0.027-1.945,0.077-1.971,2.055
		c-0.034,2.558-0.026,5.118-0.004,7.677c0.018,2.169,0.034,2.233,2.26,2.38c5.652,0.373,11.301,0.755,16.944,1.28
		c15.114,1.406,30.074,3.781,44.923,6.889c3.327,0.696,3.334,0.609,3.277-2.691c-0.03-1.743-1.228-1.833-2.288-2.205
		c-11.453-4.018-22.968-7.869-34.352-12.074C688.426,723.403,682.036,721.504,676.423,722.451z"/>
	<path class="st6" d="M336.984,654.837c0.328-1.529-0.247-2.399-0.637-3.313c-1.548-3.629-1.562-3.555-5.416-4.147
		c-1.331-0.204-1.965,0.108-2.513,1.328c-0.518,1.154-0.064,1.763,0.593,2.629c2.554,3.367,0.851,7.697-3.34,8.208
		c-1.586,0.194-2.158,0.876-2.68,2.142c-2.749,6.664-5.55,13.307-8.336,19.955c-0.282,0.673-0.602,1.331-0.867,2.011
		c-0.283,0.726-0.74,0.941-1.5,0.727c-0.925-0.26-1.961-1.353-2.713-0.633c-0.584,0.559-0.447,1.88-0.612,2.865
		c-0.105,0.63-0.155,1.269-0.265,1.898c-0.175,1.001,0.191,1.556,1.23,1.679c1.359,0.162,2.712,0.369,4.068,0.552
		c5.426,0.731,10.856,1.438,16.276,2.209c1.013,0.144,1.584-0.06,1.712-1.131c0.076-0.634,0.212-1.26,0.298-1.892
		c0.689-5.064,1.379-10.128,2.056-15.193C335.246,667.948,336.143,661.162,336.984,654.837z"/>
	<path class="st8" d="M877.715,541.818c5.58-0.03,10.327-3.977,11.239-8.785c0.803-4.232-1.309-7.628-5.46-8.784
		c-1.42-0.396-2.866-0.515-4.338-0.517c-3.948-0.005-7.822,0.691-11.699,1.276c-4.601,0.695-8.332-0.582-11.652-3.916
		c-20.178-20.267-40.439-40.453-60.673-60.664c-19.134-19.113-38.269-38.225-57.404-57.337c-0.453-0.452-0.893-0.918-1.367-1.346
		c-0.35-0.316-0.738-0.54-1.188-0.112c-0.415,0.395-0.39,0.787-0.025,1.174c0.564,0.597,1.142,1.183,1.723,1.764
		c17.003,16.98,34.012,33.953,51.009,50.939c19.711,19.699,39.413,39.407,59.116,59.115c7.88,7.882,15.747,15.778,23.629,23.659
		C872.769,540.426,875.289,541.775,877.715,541.818z"/>
	<path class="st8" d="M381.748,436.521c-0.032,0-0.064,0-0.096,0c0-6.938,0.113-13.878-0.03-20.812
		c-0.156-7.572-5.69-12.371-13.182-11.511c-3.822,0.439-7.048,2.118-8.671,5.818c-1.635,3.726-0.633,7.133,1.803,10.215
		c1.138,1.44,2.493,2.659,3.858,3.875c2.459,2.191,5.211,4,7.79,6.034c2.826,2.23,4.254,5.043,4.178,8.759
		c-0.139,6.844-0.062,13.693-0.017,20.539c0.007,1.117-0.603,2.702,0.43,3.213c0.593,0.293,1.198-1.596,2.094-2.21
		c1.603-1.1,1.918-2.599,1.886-4.477C381.68,449.485,381.748,443.002,381.748,436.521z"/>
	<path class="st0" d="M408.599,727.241c18.086,0,36.171,0.003,54.257-0.003c2.634-0.001,2.634-0.02,2.613-2.473
		c-0.019-2.253-0.019-2.254-2.278-2.314c-0.365-0.01-0.731-0.003-1.096-0.003c-35.623,0-71.246,0-106.87,0.001
		c-0.639,0-1.279,0.021-1.918,0.012c-0.883-0.013-1.263,0.372-1.368,1.288c-0.368,3.222-0.153,3.492,3.225,3.492
		C372.976,727.242,390.787,727.241,408.599,727.241z"/>
	<path class="st7" d="M792.91,770.519c6.835,0.023,12.419-5.472,12.483-12.283c0.063-6.733-5.572-12.404-12.354-12.431
		c-6.841-0.027-12.367,5.446-12.421,12.301C780.565,764.937,786.07,770.496,792.91,770.519z"/>
	<path class="st8" d="M377.363,518.281c0.023,0,0.046,0,0.069,0c0,13.781-0.007,27.561,0.006,41.342
		c0.002,2.423,0.04,2.424,2.436,2.417c0.274-0.001,0.549-0.021,0.821-0.002c1.013,0.071,1.546-0.338,1.506-1.408
		c-0.028-0.729,0.005-1.46,0.003-2.19c-0.054-19.164-0.105-38.328-0.167-57.493c-0.02-6.114-0.064-12.227-0.11-18.34
		c-0.007-0.903,0.235-1.906-0.354-2.665c-1.173-1.511-2.453-2.937-3.482-4.562c-0.202-0.319-0.632-0.382-0.707,0.193
		c-0.047,0.359-0.021,0.729-0.021,1.094C377.363,490.538,377.363,504.41,377.363,518.281z"/>
	<path class="st0" d="M606.249,422.554c-0.01,0-0.02,0-0.03,0c0,1.368,0.113,2.748-0.029,4.101
		c-0.171,1.635,0.575,2.467,1.944,3.177c6.191,3.211,12.785,4.793,19.72,4.898c10.604,0.161,20.525-2.719,30.105-7.009
		c0.248-0.111,0.488-0.248,0.711-0.402c0.14-0.097,0.366-0.299,0.339-0.368c-0.114-0.285-0.406-0.209-0.64-0.179
		c-0.27,0.035-0.532,0.128-0.801,0.173c-17.421,2.88-33.728-0.096-48.846-9.307c-0.467-0.285-0.922-0.589-1.395-0.864
		c-0.659-0.383-1.057-0.153-1.069,0.581C606.229,419.089,606.249,420.822,606.249,422.554z"/>
	<path class="st2" d="M414.019,827.004c5.299,0,10.598,0.002,15.897-0.005c0.335,0,0.826,0.137,0.951-0.233
		c0.166-0.489-0.412-0.521-0.689-0.636c-2.387-0.994-4.538-2.353-6.433-4.105c-2.877-2.662-4.922-5.856-6.048-9.623
		c-0.265-0.886-0.566-1.501-1.651-0.707c-6.267,4.586-12.44,9.292-18.434,14.231c-0.249,0.205-0.728,0.394-0.475,0.838
		c0.2,0.35,0.64,0.237,0.984,0.237C403.421,827.005,408.72,827.004,414.019,827.004z"/>
	<path class="st7" d="M602.752,419.697c0-1.275-0.119-2.565,0.029-3.823c0.205-1.753-0.528-2.827-1.859-3.906
		c-5.927-4.802-10.815-10.537-14.815-17.03c-0.286-0.464-0.58-0.924-0.904-1.362c-0.088-0.119-0.297-0.149-0.451-0.22
		c-0.058,0.156-0.167,0.314-0.164,0.469c0.008,0.454,0.03,0.913,0.101,1.36c1.489,9.288,5.073,17.63,11.239,24.798
		c1.667,1.937,3.478,3.732,5.484,5.321c0.266,0.21,0.644,0.498,0.91,0.445c0.598-0.119,0.408-0.721,0.415-1.132
		C602.765,422.977,602.749,421.337,602.752,419.697z"/>
	<path class="st8" d="M334.653,812.55c-0.02-0.271-0.02-0.824-0.109-1.362c-0.622-3.773-2.677-6.528-6.024-8.327
		c-0.437-0.235-0.96-0.67-1.442-0.04c-0.558,0.729-0.318,2.267,0.445,2.894c0.563,0.462,1.19,0.857,1.705,1.366
		c2.665,2.638,3.222,6.547,1.437,9.838c-1.805,3.328-5.551,4.961-9.326,4.068c-3.563-0.844-6.102-3.977-6.258-7.723
		c-0.155-3.717,2.102-7.014,5.632-8.196c0.605-0.203,1.258-0.273,1.849-0.505c1.103-0.433,1.027-1.48,0.893-2.332
		c-0.14-0.892-1.008-0.524-1.586-0.497c-0.541,0.026-1.088,0.14-1.61,0.291c-5.593,1.615-9.177,7.368-8.079,12.946
		c1.154,5.865,6.446,9.819,12.394,9.261C330.306,823.693,334.693,818.73,334.653,812.55z"/>
	<path class="st7" d="M347.406,609.961c-0.33,0.092-0.68,0.197-1.034,0.288c-5.201,1.336-9.895,3.704-14.13,6.985
		c-4.546,3.521-8.088,7.879-10.772,12.958c-0.531,1.004-0.531,1.652,0.664,2.066c0.946,0.328,1.853,0.768,2.782,1.146
		c2.222,0.903,2.245,0.91,3.238-1.164c4.077-8.508,10.266-15.003,18.538-19.526c0.624-0.341,1.377-0.514,1.67-1.303
		C348.668,610.585,348.242,609.899,347.406,609.961z"/>
	<path class="st1" d="M714.577,339.011c0.009,2.714,0.071,2.762,2.437,2.147c5.122-1.331,8.868-6.186,8.861-11.486
		c-0.007-5.176-3.664-10.054-8.593-11.435c-0.522-0.146-1.072-0.205-1.612-0.273c-0.496-0.062-0.981,0.08-1.015,0.632
		c-0.066,1.088-0.172,2.209,0.017,3.266c0.172,0.962,1.309,0.783,2.007,1.109c2.831,1.323,4.378,3.495,4.456,6.624
		c0.076,3.046-1.594,5.727-4.595,6.747C714.911,336.896,714.258,337.613,714.577,339.011z"/>
	<path class="st1" d="M575.954,320.5c0.001-2.758-0.241-2.93-2.681-2.129c-6.039,1.981-9.557,8.612-7.662,14.67
		c1.352,4.323,4.276,7.109,8.723,8.195c0.485,0.119,1.175,0.514,1.427-0.184c0.407-1.127,0.21-2.339,0.128-3.514
		c-0.07-1.002-1.041-0.889-1.641-1.167c-2.841-1.318-4.411-3.525-4.447-6.631c-0.036-3.116,1.475-5.473,4.351-6.651
		C575.595,322.497,576.225,321.776,575.954,320.5z"/>
	<path class="st1" d="M708.418,400.238c2.212-0.201,4.166-0.633,5.777-1.946c1.833-1.494,3.63-3.037,5.374-4.634
		c1.175-1.075,1.303-2.174,0.556-3.106c-0.805-1.004-2.033-1.024-3.358,0.044c-1.203,0.971-2.342,2.02-3.506,3.039
		c-0.834,0.731-1.785,1.108-2.67,0.257c-0.874-0.839-0.737-1.896,0.185-2.608c1.182-0.913,0.889-1.516-0.138-2.251
		c-0.425-0.304-0.751-0.796-1.019-1.262c-0.561-0.974-0.96-0.874-1.394,0.087c-1.163,2.573-2.532,5.037-4.024,7.433
		c-1.882,3.023-1.695,3.535,1.715,4.465C706.787,399.995,707.695,400.102,708.418,400.238z"/>
	<path class="st0" d="M733.897,396.234c-0.026-1.174-0.17-2.104-0.835-2.785c-2.802-2.867-5.645-5.693-8.461-8.547
		c-0.577-0.584-1.085-0.523-1.64,0.01c-0.394,0.378-0.824,0.718-1.231,1.083c-0.491,0.44-0.574,0.825,0.018,1.311
		c2.459,2.022,2.883,4.511,1.53,7.329c-0.264,0.551-0.395,1.011,0.077,1.471c1.238,1.207,2.391,2.527,3.753,3.576
		c1.413,1.089,3.073,1.05,4.63,0.158C733.202,399,733.902,397.683,733.897,396.234z"/>
	<path class="st1" d="M725.056,374.642c-1.258,0.094-2.399,0.445-3.324,1.238c-2.775,2.379-5.515,4.798-8.262,7.21
		c-0.272,0.239-0.536,0.506-0.735,0.805c-0.578,0.87-0.53,1.748,0.187,2.502c0.695,0.731,1.557,1.002,2.463,0.393
		c0.679-0.456,1.301-1.001,1.921-1.538c2.142-1.854,4.217-3.791,6.426-5.56c1.444-1.156,2.678-0.657,2.883,1.157
		c0.102,0.899,0.401,1.49,0.971,2.127c0.806,0.901,1.323,0.668,1.864-0.22c1.036-1.7,1.167-3.448,0.233-5.21
		C728.7,375.693,727.066,374.819,725.056,374.642z"/>
	<path class="st0" d="M645.215,258.716c3.255-0.242,6.744-0.216,10.063-1.412c0.279-0.1,0.831-0.091,0.636-0.637
		c-0.075-0.21-0.354-0.418-0.583-0.49c-0.781-0.246-1.573-0.468-2.374-0.635c-4.247-0.883-8.537-0.79-12.818-0.412
		c-1.531,0.135-3.034,0.608-4.547,0.938c-0.456,0.099-0.963,0.282-0.915,0.814c0.018,0.197,0.552,0.397,0.88,0.509
		C638.623,258.441,641.834,258.463,645.215,258.716z"/>
	<path class="st0" d="M683.732,419.726c-0.004,0-0.009,0-0.013,0c0-0.64,0.002-1.279-0.001-1.919
		c-0.004-1.019-0.5-1.012-1.212-0.586c-1.254,0.751-2.517,1.486-3.768,2.241c-0.675,0.407-0.684,0.783,0.094,1.078
		c0.936,0.355,1.897,0.656,2.801,1.078c2.081,0.971,2.07,0.994,2.097-1.343C683.734,420.091,683.732,419.908,683.732,419.726z"/>
	<path class="st1" d="M714.596,329.61c-0.006,0-0.013,0-0.019,0c0,0.45-0.062,0.91,0.014,1.347c0.128,0.732-0.482,1.872,0.521,2.104
		c0.904,0.209,1.58-0.701,2.06-1.482c1.019-1.659,0.501-3.959-1.103-5.01c-0.821-0.538-1.377-0.331-1.459,0.614
		C714.541,327.986,714.596,328.801,714.596,329.61z"/>
	<path class="st1" d="M575.955,329.823c-0.014,0-0.027,0-0.041,0c0-0.905,0.044-1.813-0.013-2.714
		c-0.05-0.785-0.537-0.845-1.108-0.465c-1.49,0.992-2.009,3.233-1.08,4.825c0.4,0.685,0.892,1.62,1.786,1.357
		c0.84-0.248,0.338-1.253,0.447-1.918C576.002,330.555,575.955,330.185,575.955,329.823z"/>
	<path class="st0" d="M326.203,655.737c0.555-0.299,0.698-0.784,0.574-1.36c-0.05-0.233-0.222-0.3-0.365-0.18
		c-0.429,0.36-0.69,0.813-0.627,1.387C325.792,655.649,326.056,655.687,326.203,655.737z"/>
	<path class="st1" d="M714.297,368.553c-0.072,0.045-0.208,0.098-0.204,0.134c0.018,0.153,0.078,0.301,0.123,0.45
		c0.069-0.048,0.201-0.102,0.197-0.144C714.4,368.844,714.34,368.699,714.297,368.553z"/>
	<path class="st0" d="M482.56,869.765c-0.362-0.401-0.801-0.755-1.07-1.211c-0.734-1.245-0.2-2.372,1.239-2.609
		c0.624-0.103,1.276-0.041,1.916-0.041c133.944-0.001,267.888-0.001,401.832-0.001c0.183,0,0.366-0.008,0.548,0.001
		c1.06,0.054,2.315-0.292,2.864,1.022c0.623,1.491-0.632,2.09-1.515,2.838C753.103,869.765,617.832,869.765,482.56,869.765z"/>
	<path class="st0" d="M607.047,110.235c1.755,0.912,3.727,0.645,5.586,0.976c25.464,4.529,45.505,25.152,49.369,50.847
		c0.396,2.633,0.485,5.273,0.668,7.913c0.037,0.539-0.009,1.101-0.121,1.631c-0.171,0.813-0.723,1.233-1.569,1.236
		c-0.85,0.004-1.413-0.444-1.605-1.222c-0.15-0.61-0.136-1.266-0.15-1.903c-0.554-26.415-19.638-49.172-45.446-54.763
		c-30.525-6.612-61.335,12.937-68.174,43.447c-0.843,3.76-1.235,7.567-1.459,11.401c-0.032,0.547,0.019,1.11-0.098,1.637
		c-0.331,1.487-1.814,1.922-2.884,0.832c-0.44-0.448-0.721-1.05-1.091-1.571c-6.834-9.639-16.219-13.963-27.796-11.961
		c-11.816,2.044-19.242,9.459-22.33,21.083c-0.468,1.761-0.692,3.586-0.725,5.421c-0.021,1.161-0.155,2.266-1.672,2.332
		c-1.189,0.052-1.753-0.702-1.687-2.548c0.335-9.389,4.123-17.158,11.34-23.125c12.349-10.209,30.1-9.325,41.711,1.922
		c0.55,0.533,0.978,1.677,1.816,1.342c0.766-0.306,0.446-1.453,0.542-2.232c3.025-24.406,22.019-45.371,46.252-51.014
		c2.489-0.58,4.99-1.127,7.561-1.224c0.547-0.021,1.1-0.059,1.54-0.459C600.1,110.235,603.573,110.235,607.047,110.235z"/>
	<path class="st0" d="M1132.96,457.37c-0.759,0.732-0.41,1.721-0.592,2.586c-0.222,1.057-0.865,1.671-1.905,1.541
		c-1.069-0.133-1.518-0.925-1.389-1.995c0.206-1.714,0.564-3.386,0.236-5.162c-1.496-8.107-10.22-12.145-17.307-7.949
		c-0.235,0.139-0.468,0.287-0.685,0.453c-0.75,0.576-1.544,1.076-2.507,0.593c-1.127-0.565-0.955-1.618-0.897-2.636
		c0.51-8.983-2.804-16.272-9.961-21.678c-8.347-6.306-19.81-6.463-28.484-0.584c-0.302,0.205-0.59,0.431-0.892,0.636
		c-2.369,1.599-3.336,1.137-3.688-1.722c-1.835-14.925-9.195-26.241-22.468-33.353c-25.802-13.826-58,2.998-61.451,31.98
		c-0.194,1.63-0.326,3.27-0.409,4.91c-0.057,1.131-0.385,2-1.636,2.125c-1.04,0.104-1.737-0.759-1.735-2.278
		c0.008-6.206,1.351-12.134,3.838-17.81c7.587-17.315,25.192-28.006,44.08-27.174c19.101,0.842,38.031,14.579,42.528,36.739
		c0.51,2.512,0.495,2.515,2.97,1.28c12.813-6.398,28.176-2.368,36.108,9.462c2.705,4.034,4.148,8.499,4.684,13.299
		c0.207,1.854,0.265,1.847,2.044,1.344c7.76-2.194,15.352,1.365,18.375,8.478c0.657,1.547,0.231,3.283,1.142,4.721
		C1132.96,455.908,1132.96,456.639,1132.96,457.37z"/>
	<path class="st0" d="M572.029,848.788c-66.429,0-132.859,0-199.288-0.002c-1.005,0-2.018,0.05-3.012-0.061
		c-1.004-0.111-1.726-0.689-1.675-1.798c0.045-0.965,0.719-1.455,1.617-1.563c0.722-0.088,1.458-0.071,2.188-0.071
		c133.407-0.003,266.814-0.003,400.22,0.003c0.819,0,1.652,0.005,2.451,0.153c0.791,0.146,1.281,0.746,1.299,1.557
		c0.018,0.818-0.493,1.373-1.244,1.62c-0.422,0.139-0.898,0.14-1.352,0.153c-0.822,0.023-1.645,0.009-2.467,0.009
		C704.523,848.788,638.276,848.788,572.029,848.788z"/>
	<path class="st9" d="M328.668,250.278c30.45,0.021,55.398,21.326,60.141,50.507c0.059,0.36,0.087,0.728,0.172,1.082
		c0.16,0.668,0.526,0.913,1.177,0.523c0.548-0.328,1.105-0.643,1.662-0.956c22.671-12.704,51.078,1.543,54.433,27.304
		c0.106,0.814,0.134,1.639,0.171,2.46c0.119,2.658,0.113,2.655,2.523,1.788c3.798-1.367,7.655-1.6,11.585-0.624
		c9.852,2.447,16.288,12.785,14.023,22.543c-0.467,2.01-1.093,2.757-2.201,2.624c-1.244-0.15-1.578-1.109-1.172-3.367
		c1.196-6.671-1.336-12.909-6.868-16.371c-5.838-3.654-11.728-3.491-17.525,0.214c-0.461,0.294-0.869,0.695-1.361,0.911
		c-1.347,0.593-2.379-0.028-2.446-1.524c-0.057-1.274,0.086-2.555,0.088-3.834c0.031-18.381-14.837-33.412-33.206-33.418
		c-7.124-0.003-13.665,2.11-19.493,6.293c-3.349,2.404-4.039,2.136-4.472-1.823c-2.834-25.904-21.587-44.189-42.851-49.265
		c-32.776-7.823-63.069,13.665-68.934,44.08c-0.606,3.144-1.021,6.31-1.046,9.518c-0.004,0.457,0.026,0.921-0.046,1.368
		c-0.169,1.041-0.812,1.69-1.87,1.592c-0.918-0.085-1.455-0.74-1.435-1.703c0.042-2.008-0.009-4.029,0.199-6.022
		c2.643-25.32,20.668-46.03,45.369-52.181C320.009,250.82,324.813,250.334,328.668,250.278z"/>
	<path class="st9" d="M770.199,309.221c0.172-23.158,19.298-40.527,41.657-38.422c12.014,1.131,21.358,6.883,28.222,16.752
		c0.208,0.3,0.448,0.589,0.593,0.919c0.556,1.262,1.324,1.449,2.601,0.871c3.903-1.765,8.033-2.279,12.299-2.038
		c12.131,0.687,22.805,10.352,24.611,22.365c0.19,1.262,0.369,2.536,0.394,3.808c0.03,1.495-0.671,2.383-1.707,2.328
		c-1.276-0.068-1.631-0.965-1.719-2.068c-0.144-1.819-0.276-3.631-0.745-5.416c-3.735-14.213-19.145-21.583-32.511-15.523
		c-0.083,0.038-0.17,0.066-0.253,0.105c-3.396,1.58-3.381,1.571-5.378-1.773c-3.508-5.874-8.301-10.393-14.424-13.456
		c-22.946-11.478-50.063,5.2-50.158,30.853c-0.006,1.732,0.179,3.464,0.266,5.196c0.05,1.015-0.268,1.879-1.369,2.036
		c-1.245,0.177-1.871-0.645-1.997-1.755C770.373,312.19,770.286,310.363,770.199,309.221z"/>
	<path class="st0" d="M355.908,866.8c-8.774,0-17.547,0.004-26.321-0.006c-0.818-0.001-1.65-0.016-2.451-0.157
		c-0.799-0.141-1.283-0.741-1.3-1.551c-0.017-0.816,0.492-1.41,1.239-1.626c0.599-0.172,1.265-0.151,1.9-0.15
		c18.095,0.021,36.19,0.049,54.285,0.083c0.637,0.001,1.29,0.001,1.905,0.138c0.785,0.174,1.285,0.751,1.3,1.562
		c0.015,0.813-0.479,1.436-1.244,1.609c-0.789,0.178-1.628,0.175-2.446,0.176c-8.956,0.011-17.911,0.007-26.867,0.007
		C355.908,866.856,355.908,866.828,355.908,866.8z"/>
	<path class="st0" d="M903.472,844.11c8.764,0,17.529-0.004,26.293,0.007c0.815,0.001,1.649,0.013,2.441,0.18
		c0.785,0.166,1.235,0.782,1.224,1.607c-0.011,0.821-0.445,1.406-1.264,1.561c-0.621,0.117-1.268,0.134-1.904,0.134
		c-17.985,0.007-35.971,0.006-53.956,0.004c-0.547,0-1.099,0.007-1.64-0.063c-0.901-0.115-1.574-0.572-1.619-1.549
		c-0.051-1.116,0.679-1.657,1.671-1.808c0.716-0.109,1.456-0.07,2.186-0.07C885.761,844.109,894.617,844.11,903.472,844.11z"/>
	<path class="st0" d="M950.927,868.133c-8.223,0-16.445,0-24.668,0c-0.64,0-1.279-0.017-1.919-0.001
		c-1.137,0.028-2.005-0.321-2.122-1.598c-0.102-1.109,0.623-1.663,2.228-1.769c0.273-0.018,0.548-0.007,0.822-0.007
		c17.359,0,34.718-0.004,52.077,0.005c2.091,0.001,2.93,0.483,2.99,1.601c0.066,1.22-0.852,1.763-3.097,1.765
		C968.468,868.138,959.697,868.133,950.927,868.133z"/>
	<path class="st0" d="M641.821,339.713c-8.17-0.289-13.996-4.259-17.981-11.185c-0.224-0.389-0.401-0.83-0.488-1.268
		c-0.159-0.802,0.16-1.448,0.888-1.822c0.754-0.387,1.465-0.188,1.951,0.456c0.547,0.726,0.968,1.545,1.469,2.307
		c4.352,6.612,11.698,9.53,18.747,7.374c4.309-1.318,7.473-4.105,9.735-7.96c0.415-0.707,0.745-1.482,1.253-2.113
		c0.489-0.608,1.2-0.785,1.974-0.393c0.771,0.391,1.012,1.038,0.863,1.823c-0.083,0.438-0.286,0.865-0.497,1.264
		C655.917,335.4,650.061,339.425,641.821,339.713z"/>
	<path class="st0" d="M602.025,324.375c0.045-3.203,2.575-5.708,5.742-5.683c3.112,0.024,5.726,2.637,5.758,5.755
		c0.034,3.24-2.637,5.812-5.966,5.747C604.326,330.13,601.979,327.662,602.025,324.375z"/>
	<path class="st0" d="M687.745,324.349c0.059,3.293-2.271,5.762-5.516,5.845c-3.327,0.085-5.997-2.466-5.984-5.72
		c0.012-3.135,2.593-5.744,5.719-5.782C685.123,318.653,687.688,321.162,687.745,324.349z"/>
	<path class="st0" d="M644.966,312.966c0.037,1.126-0.719,1.565-1.615,1.924c-2.281,0.912-4.552,1.849-6.827,2.777
		c-0.505,0.206-1.004,0.432-1.517,0.617c-1.037,0.374-1.321,0.823-0.317,1.636c1.983,1.604,3.922,3.262,5.881,4.895
		c0.42,0.35,0.849,0.689,1.267,1.04c0.864,0.726,1.25,1.597,0.59,2.63c-0.549,0.859-1.694,0.845-2.875-0.058
		c-1.156-0.885-2.25-1.853-3.369-2.785c-2.17-1.808-4.373-3.576-6.497-5.437c-1.785-1.563-1.635-2.74,0.505-3.652
		c3.934-1.677,7.9-3.281,11.882-4.838C643.772,311.051,644.912,311.624,644.966,312.966z"/>
	<path class="st0" d="M320.177,641.557c-0.048,2.775-2.311,4.99-5.081,4.972c-2.754-0.018-5.025-2.289-5.04-5.039
		c-0.016-2.845,2.428-5.237,5.245-5.133C318.042,636.459,320.224,638.786,320.177,641.557z M316.831,641.419
		c-0.015-0.897-0.864-1.677-1.792-1.591c-0.92,0.085-1.474,0.594-1.533,1.546c-0.058,0.935,0.713,1.772,1.609,1.774
		C315.991,643.15,316.845,642.29,316.831,641.419z"/>
	<path class="st0" d="M447.721,806.073c-0.002,5.225-4.194,9.407-9.39,9.366c-5.147-0.041-9.415-4.4-9.312-9.51
		c0.103-5.102,4.21-9.142,9.318-9.167C443.617,796.737,447.723,800.811,447.721,806.073z"/>
	<path class="st0" d="M992.547,308H984v-38.124c0-0.729-0.187-1.378-0.875-1.618c-0.687-0.239-1.316-0.018-1.769,0.554
		l-7.929,10.092c-0.588,0.742-0.429,1.82,0.313,2.408c0.742,0.587,1.777,0.462,2.364-0.279l4.896-6.234V308h-7.875
		c-0.946,0-1.714,1.053-1.714,2s0.768,2,1.714,2h19.422c0.946,0,1.714-1.053,1.714-2S993.493,308,992.547,308z"/>
</g>
</svg>
