<svg xmlns="http://www.w3.org/2000/svg" width="86.217" height="59.239" viewBox="0 0 86.217 59.239">
  <g id="Group_124" data-name="Group 124" transform="translate(-3173 707)">
    <path id="Path_1" data-name="Path 1" d="M35.6,59.1h0a9.1,9.1,0,0,1-10.4-7.4l-7-41.2A9.1,9.1,0,0,1,25.6.1h0A9.1,9.1,0,0,1,36,7.5l7,41.2A9.1,9.1,0,0,1,35.6,59.1Z" transform="translate(3172.958 -706.98)" fill="#958c83"/>
    <path id="Path_2" data-name="Path 2" d="M60.7,59.1h0a9.1,9.1,0,0,1-10.4-7.4l-7-41.2A8.96,8.96,0,0,1,50.6.1h0A9.1,9.1,0,0,1,61,7.5l7,41.2A8.96,8.96,0,0,1,60.7,59.1Z" transform="translate(3172.958 -706.98)" fill="#958c83"/>
    <path id="Path_3" data-name="Path 3" d="M5.4,58.4h0A9.063,9.063,0,0,1,.8,46.5L18.9,5.4A9.063,9.063,0,0,1,30.8.8h0a9.063,9.063,0,0,1,4.6,11.9L17.2,53.8A8.9,8.9,0,0,1,5.4,58.4Z" transform="translate(3172.958 -706.98)" fill="#d9c8ae"/>
    <path id="Path_4" data-name="Path 4" d="M30.4,58.4h0a9.063,9.063,0,0,1-4.6-11.9L43.9,5.4A9.063,9.063,0,0,1,55.8.8h0a9.063,9.063,0,0,1,4.6,11.9L42.3,53.8A9.043,9.043,0,0,1,30.4,58.4Z" transform="translate(3172.958 -706.98)" fill="#abb4a1"/>
    <path id="Path_5" data-name="Path 5" d="M55.4,58.4h0a9.063,9.063,0,0,1-4.6-11.9L69,5.4A9.063,9.063,0,0,1,80.9.8h0a9.063,9.063,0,0,1,4.6,11.9L67.3,53.8A8.979,8.979,0,0,1,55.4,58.4Z" transform="translate(3172.958 -706.98)" fill="#efb4a2"/>
  </g>
</svg>
